<svg width="24" height="24" viewBox="0 0 24 24" fill="none" xmlns="http://www.w3.org/2000/svg">
<g clip-path="url(#clip0_210_2864)">
<mask id="mask0_210_2864" style="mask-type:luminance" maskUnits="userSpaceOnUse" x="0" y="0" width="24" height="24">
<path d="M0 1.90735e-06H24V24H0V1.90735e-06Z" fill="white"/>
</mask>
<g mask="url(#mask0_210_2864)">
<path d="M12.0357 21.8906C12.0357 21.0639 12.3641 20.271 12.9486 19.6865L17.2585 15.3766L7.97774 6.09581L1.34863 12.7249L8.31013 19.6865C8.89476 20.271 9.22316 21.0639 9.22316 21.8906C9.22316 22.6673 9.85274 23.2969 10.6294 23.2969C11.406 23.2969 12.0357 22.6673 12.0357 21.8906Z" stroke="#ED1F24" stroke-miterlimit="10" stroke-linecap="round" stroke-linejoin="round"/>
<path d="M17.5898 11.7306L11.6236 5.76435C10.7082 4.84907 9.22427 4.84907 8.30899 5.76435L7.97754 6.09581L17.2583 15.3766L17.5898 15.0451C18.5051 14.1299 18.5051 12.6458 17.5898 11.7306Z" stroke="#ED1F24" stroke-miterlimit="10" stroke-linecap="round" stroke-linejoin="round"/>
<path d="M21.8991 1.45543C20.8312 0.387475 19.0767 0.46707 18.1098 1.62732L13.2812 7.42163L15.9329 10.0733L21.7272 5.24466C22.8875 4.27782 22.9671 2.52338 21.8991 1.45543Z" stroke="#ED1F24" stroke-miterlimit="10" stroke-linecap="round" stroke-linejoin="round"/>
<path d="M12.9496 19.6855L14.2754 18.3597C14.8246 17.8105 14.8246 16.9201 14.2754 16.371C13.7263 15.8218 12.8359 15.8218 12.2867 16.371L11.5274 17.1303C11.0315 17.6262 10.2274 17.6262 9.73153 17.1303L9.70434 17.1031C9.2084 16.6072 9.2084 15.8032 9.70434 15.3073L9.96661 15.045C10.4243 14.5874 10.4242 13.8453 9.96656 13.3877V13.3876C9.50892 12.93 8.76698 12.9301 8.30934 13.3877L8.04703 13.65C7.55118 14.1459 6.74728 14.1459 6.25139 13.6501L6.22411 13.6228C5.72817 13.1269 5.72817 12.3229 6.22406 11.827L6.98343 11.0676C7.53262 10.5185 7.53262 9.62808 6.98343 9.07889C6.43425 8.52971 5.54386 8.52971 4.99467 9.07889L3.3374 10.7362" stroke="#ED1F24" stroke-miterlimit="10" stroke-linecap="round" stroke-linejoin="round"/>
<path d="M20.5797 3.76879C20.3052 4.04338 19.8599 4.04338 19.5853 3.76879C19.3107 3.49419 19.3107 3.04902 19.5853 2.77443C19.8599 2.49983 20.3052 2.49983 20.5797 2.77443C20.8543 3.04902 20.8543 3.49419 20.5797 3.76879Z" fill="#ED1F24"/>
</g>
</g>
<defs>
<clipPath id="clip0_210_2864">
<rect width="24" height="24" fill="white"/>
</clipPath>
</defs>
</svg>
