<svg width="24" height="24" viewBox="0 0 24 24" fill="none" xmlns="http://www.w3.org/2000/svg">
<g clip-path="url(#clip0_210_2904)">
<path d="M23.2493 11.8401C22.4468 11.1787 21.1785 11.122 20.346 12.0154L18.2794 14.2338C18.0122 13.3751 17.2103 12.7498 16.2649 12.7498H12.577C12.2971 12.7498 12.2034 12.643 11.7173 12.2685C9.864 10.6528 7.08028 10.658 5.23256 12.284L3.87703 13.4773C3.2677 13.1548 2.55619 13.1468 1.94353 13.4529L0.388782 14.2301C0.0414378 14.404 -0.0991403 14.8263 0.0742504 15.1736L4.29277 23.6106C4.46667 23.9579 4.88897 24.0985 5.23631 23.9251L6.79106 23.1475C7.55742 22.7646 7.98394 21.9827 7.95628 21.1869H16.2648C17.8055 21.1869 19.2778 20.451 20.2021 19.2183L23.5774 14.7176C24.2322 13.8453 24.1286 12.5661 23.2493 11.8401ZM6.162 21.8899L5.23627 22.353L1.64634 15.1736L2.57255 14.7105C2.91989 14.5371 3.34172 14.6773 3.51563 15.0251L6.47653 20.9469C6.64997 21.2942 6.50934 21.716 6.162 21.8899ZM22.4524 13.8739L19.0772 18.3745C18.4168 19.2553 17.3654 19.7807 16.2649 19.7807H7.46555L4.83084 14.5108L6.16153 13.3395C7.48566 12.1747 9.48244 12.1747 10.8066 13.3395C11.5865 14.0262 12.0716 14.1561 12.5769 14.1561H16.2648C16.6525 14.1561 16.9679 14.4715 16.9679 14.8591C16.9679 15.2467 16.6524 15.5622 16.2648 15.5622H12.674C12.2858 15.5622 11.9709 15.8772 11.9709 16.2653C11.9709 16.6534 12.2859 16.9684 12.674 16.9684H16.7359C17.3195 16.9684 17.882 16.7237 18.2794 16.2967L21.3749 12.9739C21.658 12.6702 22.092 12.6955 22.3582 12.9284C22.6366 13.1721 22.6667 13.5889 22.4524 13.8739Z" fill="#ED1F24"/>
<path d="M14.7835 4.79845C15.2648 4.29366 15.5615 3.6112 15.5615 2.8598C15.5615 1.31208 14.311 0.000610352 12.7492 0.000610352C11.1992 0.000610352 9.89004 1.30974 9.89004 2.8598C9.89004 3.58819 10.1755 4.2758 10.6939 4.80408C9.40822 5.52497 8.48389 6.90863 8.48389 8.53134V9.23442C8.48389 9.6225 8.79889 9.9375 9.18696 9.9375H16.2647C16.6527 9.9375 16.9677 9.6225 16.9677 9.23442V8.53134C16.9677 6.9405 16.0927 5.53528 14.7835 4.79845ZM12.7492 1.40681C13.5114 1.40681 14.1554 2.07239 14.1554 2.85984C14.1554 3.63511 13.5245 4.266 12.7492 4.266C11.9618 4.266 11.2962 3.62199 11.2962 2.85984C11.2962 2.08599 11.9754 1.40681 12.7492 1.40681ZM9.89004 8.53134C9.89004 6.98128 11.1992 5.67216 12.7492 5.67216C14.2998 5.67216 15.5615 6.95456 15.5615 8.53134H9.89004Z" fill="#ED1F24"/>
</g>
<defs>
<clipPath id="clip0_210_2904">
<rect width="24" height="24" fill="white"/>
</clipPath>
</defs>
</svg>
