<svg width="24" height="24" viewBox="0 0 24 24" fill="none" xmlns="http://www.w3.org/2000/svg">
<path d="M23.3551 10.4389C23.3544 10.4383 23.3538 10.4376 23.3533 10.437L13.5632 0.647279C13.1459 0.229798 12.5911 0 12.0009 0C11.4108 0 10.8559 0.229798 10.4385 0.647279L0.653468 10.4321C0.650172 10.4354 0.646693 10.4389 0.643581 10.4422C-0.213355 11.304 -0.21189 12.7024 0.647792 13.5621C1.04055 13.955 1.55911 14.1825 2.11374 14.2064C2.13644 14.2086 2.15915 14.2097 2.18204 14.2097H2.57205V21.4142C2.57205 22.8401 3.73221 24 5.15805 24H8.98826C9.37663 24 9.69139 23.6851 9.69139 23.2969V17.6485C9.69139 16.9979 10.2207 16.4687 10.8713 16.4687H13.1305C13.7811 16.4687 14.3102 16.9979 14.3102 17.6485V23.2969C14.3102 23.6851 14.625 24 15.0134 24H18.8436C20.2696 24 21.4296 22.8401 21.4296 21.4142V14.2097H21.7914C22.3814 14.2097 22.9362 13.9799 23.3538 13.5623C24.2144 12.7013 24.2148 11.3004 23.3551 10.4389ZM22.3594 12.568C22.2076 12.7198 22.0058 12.8035 21.7914 12.8035H20.7264C20.3381 12.8035 20.0233 13.1183 20.0233 13.5066V21.4142C20.0233 22.0646 19.4941 22.5938 18.8436 22.5938H15.7165V17.6485C15.7165 16.2226 14.5565 15.0625 13.1305 15.0625H10.8713C9.44529 15.0625 8.28514 16.2226 8.28514 17.6485V22.5938H5.15805C4.50766 22.5938 3.9783 22.0646 3.9783 21.4142V13.5066C3.9783 13.1183 3.66354 12.8035 3.27518 12.8035H2.22854C2.21756 12.8028 2.20675 12.8022 2.19559 12.802C1.98611 12.7984 1.78964 12.7152 1.64242 12.5678C1.32931 12.2547 1.32931 11.7451 1.64242 11.4318C1.64224 11.432 1.64261 11.4318 1.64242 11.4318L1.64334 11.4309L11.4331 1.64154C11.5847 1.48975 11.7863 1.40625 12.0009 1.40625C12.2153 1.40625 12.4169 1.48975 12.5687 1.64154L22.3563 11.4289C22.3577 11.4304 22.3594 11.4318 22.3608 11.4333C22.6723 11.747 22.6718 12.2555 22.3594 12.568Z" fill="#ED1F24"/>
</svg>
