<svg width="108" height="108" viewBox="0 0 108 108" fill="none" xmlns="http://www.w3.org/2000/svg">
<g clip-path="url(#clip0_474_2579)">
<path d="M39.2898 67.6553C38.7298 66.3127 37.4148 65.4397 35.9601 65.4439C34.5045 65.448 33.1954 66.3286 32.6429 67.6745L27.979 79.2397L26.6063 82.5427C25.3097 85.689 25.5709 89.2615 27.3094 92.1869C28.9031 94.9256 31.708 96.7386 34.8594 97.0667C35.2285 97.1052 35.5993 97.1245 35.9701 97.1245C36.3401 97.1245 36.71 97.1052 37.0775 97.0676C40.2306 96.7403 43.038 94.9273 44.6317 92.1869C46.371 89.2623 46.6313 85.689 45.3348 82.5427L39.2898 67.6553ZM41.5405 90.3454C40.5244 92.1048 38.729 93.2733 36.7092 93.4893C36.217 93.5403 35.7207 93.5403 35.2285 93.4893C33.2096 93.2725 31.4158 92.104 30.3997 90.3454C29.2404 88.3985 29.0655 86.0188 29.9276 83.9229L35.9626 69.0196L40.6407 80.6208L42.0135 83.9229C42.8756 86.0188 42.7006 88.3985 41.5405 90.3454Z" fill="white"/>
<path d="M10.7911 61.1532C9.79838 61.1532 8.99316 61.9584 8.99316 62.952V64.7507C8.99316 65.7435 9.79838 66.5487 10.7911 66.5487C11.7846 66.5487 12.5899 65.7435 12.5899 64.7507V62.952C12.5899 61.9584 11.7846 61.1532 10.7911 61.1532Z" fill="white"/>
<path d="M10.7911 70.1462C9.79838 70.1462 8.99316 70.9515 8.99316 71.945V95.3257C8.99316 96.3192 9.79838 97.1245 10.7911 97.1245C11.7846 97.1245 12.5899 96.3192 12.5899 95.3257V71.945C12.5899 70.9515 11.7846 70.1462 10.7911 70.1462Z" fill="white"/>
<path d="M97.8585 58.4128C93.4524 56.1461 89.6406 54.1364 88.2603 49.711L96.4615 41.5098C97.1362 40.8352 97.5153 39.9203 97.5153 38.9661C97.5153 38.0119 97.1362 37.097 96.4615 36.4224L85.0168 24.976C84.1781 24.1373 82.9795 23.7674 81.8135 23.9858L66.1 1.53845C65.4898 0.667106 64.5264 0.109646 63.4667 0.0167358C62.4071 -0.0753372 61.3616 0.304673 60.6091 1.05716L40.1932 21.4731C39.0615 22.6106 38.8171 24.3592 39.5922 25.7637L42.2347 30.5214L37.4779 27.8772C36.0725 27.1038 34.3256 27.349 33.1865 28.479L28.032 33.6343C27.8094 33.8628 27.6177 34.1206 27.4637 34.4001C19.6383 34.8295 0 36.5655 0 43.168V50.3622C0.058592 51.658 0.725703 52.849 1.79877 53.5773V99.2605C1.80965 99.3626 1.82974 99.4631 1.85987 99.5619L1.86406 99.5861C1.88833 99.7468 1.93437 99.9034 2.00049 100.051C4.15751 106.222 23.98 107.915 35.9704 107.915C48.6631 107.915 70.1429 106.021 70.1429 98.9224V67.8285L76.6859 61.2854C81.1104 62.6657 83.121 66.4767 85.3876 70.8836C86.5712 73.4257 88.0502 75.8187 89.7938 78.0143C91.3774 79.8566 93.6625 80.9464 96.0899 81.0184C96.2004 81.0217 96.3109 81.0242 96.4213 81.0242C98.8303 81.0217 101.14 80.0658 102.846 78.3641L105.341 75.8706C107.123 74.0836 108.084 71.6378 107.994 69.115C107.923 66.6876 106.832 64.4025 104.991 62.8197C102.794 61.0754 100.401 59.5963 97.8585 58.4128ZM93.9195 38.9644L65.9402 66.9446L54.4946 55.4982L82.474 27.5198L93.9195 38.9644ZM4.65806 51.1976C4.24959 50.9959 3.88799 50.7096 3.59838 50.3581L3.59671 50.3589V47.5448C4.3065 47.893 5.03723 48.196 5.78469 48.4538L5.86337 48.4806L5.86923 48.4831C12.2265 50.7858 23.4652 52.161 35.9704 52.161C39.5453 52.161 43.1186 52.0304 46.614 51.7952L50.9624 54.8395C50.9524 54.8914 50.9549 54.945 50.9473 54.9977C45.9712 55.5074 40.9725 55.7611 35.9704 55.7577C22.028 55.7577 9.16126 53.887 4.65806 51.1976ZM36.8744 44.9768L41.8338 48.448C39.8877 48.5216 37.9299 48.5635 35.9704 48.5635C28.4606 48.6288 20.9592 48.0269 13.5548 46.7647C20.9592 45.5033 28.4606 44.9015 35.9704 44.9668C36.2776 44.9718 36.5747 44.9743 36.8736 44.9768H36.8744ZM35.7302 31.0219L45.9905 36.722C46.6927 37.1129 47.5682 36.9899 48.1366 36.4224C48.7041 35.854 48.8271 34.9777 48.4362 34.2763L42.7369 24.016L50.5589 16.194L62.0153 29.9421C62.4213 30.4527 63.0725 30.703 63.7153 30.5967C64.359 30.4904 64.8947 30.0442 65.1148 29.4307C65.3358 28.8172 65.2069 28.1316 64.7784 27.6403L53.1127 13.6402L63.1529 3.60005L78.8622 26.0433L53.0173 51.8881L30.5749 36.178L35.7302 31.0219ZM27.4813 38.0086C27.7416 38.4497 28.0931 38.8305 28.5125 39.1252L31.7978 41.4236C21.3467 41.6848 12.1369 42.9219 6.44092 44.8529C5.37957 44.5357 4.40611 43.9774 3.59671 43.2207V43.2115C4.14496 41.7785 11.6832 38.8724 27.4813 38.0086ZM35.9704 104.319C16.9314 104.319 5.96549 100.798 5.39548 98.9023V55.4974C11.5978 57.8754 23.0392 59.3544 35.9704 59.3544C41.4513 59.362 46.9271 59.0657 52.3745 58.4655L63.3964 69.4875C64.0694 70.1646 64.9851 70.5438 65.9402 70.5413C66.1436 70.5388 66.3461 70.5187 66.5462 70.4819V98.8981C65.9937 100.793 55.027 104.319 35.9704 104.319ZM102.797 73.3278L100.303 75.8221C99.222 76.896 97.7455 77.4752 96.223 77.4233C94.7958 77.3848 93.4507 76.747 92.5174 75.6664C90.9631 73.6827 89.6439 71.5256 88.5859 69.238C86.5034 65.1885 84.1873 60.6853 79.4916 58.4797L85.4538 52.5168C87.6593 57.2133 92.1617 59.5285 96.2121 61.6119C98.4997 62.6699 100.657 63.989 102.64 65.5434C103.721 66.4767 104.359 67.821 104.398 69.2481C104.452 70.7715 103.873 72.248 102.797 73.3278Z" fill="white"/>
<path d="M62.1253 52.9546L60.8539 54.226C60.3876 54.678 60.2018 55.346 60.3667 55.9737C60.5316 56.6015 61.0213 57.092 61.649 57.2569C62.2768 57.4218 62.9448 57.2351 63.3967 56.7698L64.669 55.4983C65.3562 54.7927 65.3487 53.6669 64.6531 52.9705C63.9567 52.2749 62.8301 52.2674 62.1253 52.9546Z" fill="white"/>
<path d="M81.2007 33.8788L67.2123 47.868C66.746 48.32 66.5602 48.9879 66.7251 49.6157C66.89 50.2435 67.3805 50.734 68.0083 50.8989C68.636 51.0638 69.304 50.8771 69.756 50.4117L83.7444 36.4217C84.2098 35.9697 84.3964 35.3017 84.2315 34.6739C84.0666 34.0462 83.5761 33.5557 82.9484 33.3916C82.3206 33.2267 81.6527 33.4125 81.2007 33.8788Z" fill="white"/>
</g>
<defs>
<clipPath id="clip0_474_2579">
<rect width="108" height="108" fill="white"/>
</clipPath>
</defs>
</svg>
