<svg width="24" height="24" viewBox="0 0 24 24" fill="none" xmlns="http://www.w3.org/2000/svg">
<g clip-path="url(#clip0_240_2078)">
<mask id="mask0_240_2078" style="mask-type:luminance" maskUnits="userSpaceOnUse" x="0" y="0" width="24" height="24">
<path d="M24 0H0V24H24V0Z" fill="white"/>
</mask>
<g mask="url(#mask0_240_2078)">
<mask id="mask1_240_2078" style="mask-type:luminance" maskUnits="userSpaceOnUse" x="0" y="0" width="24" height="24">
<path d="M0 1.90735e-06H24V24H0V1.90735e-06Z" fill="white"/>
</mask>
<g mask="url(#mask1_240_2078)">
<path d="M23.2862 10.6917C23.2669 10.5081 23.1724 10.3406 23.0253 10.2291L21.3458 8.92134C21.3039 8.88974 21.2863 8.83532 21.3015 8.78516L21.9296 6.71249C21.9832 6.53577 21.9612 6.34485 21.8689 6.18487C21.7766 6.02502 21.6222 5.91051 21.4425 5.86851L19.3332 5.37609C19.2821 5.36413 19.2439 5.32166 19.2374 5.26963L18.9682 3.1206C18.9452 2.93741 18.8475 2.7719 18.6981 2.66343C18.5488 2.55487 18.3612 2.51296 18.1799 2.54784L16.0528 2.95584C16.0013 2.96568 15.9491 2.94248 15.9219 2.89757L14.8017 1.0439C14.6326 0.764055 14.2715 0.630134 13.9255 0.790165C13.9183 0.793493 13.9113 0.79757 13.9048 0.802117L12.0714 2.07918C12.0284 2.10913 11.9713 2.10913 11.9282 2.07918L10.151 0.841304C9.99948 0.735836 9.81104 0.697774 9.63057 0.736117C9.44996 0.774508 9.29335 0.88593 9.19787 1.04399L8.07788 2.89771C8.05074 2.94262 7.99853 2.96582 7.94706 2.95598L5.81992 2.54798C5.63865 2.51324 5.45101 2.55505 5.30167 2.66357C5.15237 2.77209 5.05459 2.93751 5.03162 3.1207L4.76242 5.26977C4.7559 5.32176 4.71765 5.36427 4.66656 5.37623L2.48767 5.88496C2.47965 5.88759 2.47159 5.89021 2.46357 5.89284C2.11628 6.04471 1.97574 6.40082 2.07015 6.71249L2.69818 8.78526C2.71342 8.83541 2.69574 8.88979 2.65398 8.92143L0.918291 10.2717C0.912057 10.2773 0.905728 10.2831 0.899447 10.2887C0.643322 10.5684 0.65926 10.9516 0.872682 11.1982L2.24251 12.8363C2.27687 12.876 2.28282 12.9329 2.25751 12.9787L1.17798 14.9376C1.1746 14.9453 1.17123 14.953 1.16785 14.9607C1.04757 15.32 1.21806 15.6637 1.51337 15.8023L3.47392 16.7225C3.5214 16.7448 3.54995 16.7942 3.54549 16.8465L3.36207 19.0046C3.34642 19.1886 3.40764 19.3708 3.53124 19.508C3.65467 19.6452 3.82956 19.7251 4.01406 19.7288L6.17963 19.772C6.23204 19.773 6.27826 19.8066 6.29542 19.8561L7.00562 21.9021C7.06609 22.0766 7.19607 22.2182 7.36473 22.2932C7.53343 22.3684 7.72562 22.3702 7.89577 22.2986L9.89167 21.4573C9.93999 21.4369 9.99592 21.4488 10.0317 21.487L11.561 23.1189C11.5674 23.1246 11.5737 23.1303 11.58 23.1359C11.8851 23.3614 12.2641 23.3053 12.4871 23.0674L13.9681 21.4871C14.004 21.4488 14.0599 21.4369 14.1082 21.4573L16.104 22.2986C16.2741 22.3702 16.4663 22.3683 16.6349 22.2932C16.8036 22.2182 16.9336 22.0767 16.9942 21.9022L17.7044 19.8561C17.7216 19.8066 17.7677 19.773 17.8202 19.772L20.0564 19.7274C20.0647 19.7264 20.0731 19.7256 20.0815 19.7247C20.4531 19.6489 20.6652 19.3296 20.6376 19.0046L20.4542 16.8465C20.4497 16.7942 20.4783 16.7448 20.5258 16.7225L22.4865 15.8023C22.6537 15.7239 22.7808 15.5797 22.8379 15.4042C22.8949 15.2287 22.8767 15.0373 22.7876 14.8756L21.7422 12.9787C21.7169 12.9328 21.7229 12.876 21.7572 12.8363L23.1272 11.1982C23.2479 11.0586 23.3054 10.8752 23.2862 10.6917Z" stroke="#ED1F24" stroke-miterlimit="10"/>
<path d="M17.3435 12C17.3435 14.91 14.9844 17.2691 12.0743 17.2691C9.16425 17.2691 6.80518 14.91 6.80518 12C6.80518 9.08995 9.16425 6.73087 12.0743 6.73087C14.9844 6.73087 17.3435 9.08995 17.3435 12Z" stroke="#ED1F24" stroke-miterlimit="10"/>
<path d="M14.2883 10.6429L11.0171 13.9141" stroke="#ED1F24" stroke-miterlimit="10" stroke-linecap="round"/>
<path d="M9.76709 12.664L11.0171 13.9141" stroke="#ED1F24" stroke-miterlimit="10" stroke-linecap="round"/>
</g>
</g>
</g>
<defs>
<clipPath id="clip0_240_2078">
<rect width="24" height="24" fill="white"/>
</clipPath>
</defs>
</svg>
