<svg width="24" height="24" viewBox="0 0 24 24" fill="none" xmlns="http://www.w3.org/2000/svg">
<g clip-path="url(#clip0_210_2882)">
<mask id="mask0_210_2882" style="mask-type:luminance" maskUnits="userSpaceOnUse" x="0" y="0" width="24" height="24">
<path d="M0 1.90735e-06H24V24H0V1.90735e-06Z" fill="white"/>
</mask>
<g mask="url(#mask0_210_2882)">
<path d="M18.0723 18.2686L11.7856 15.1197L12.4154 13.8623C12.7632 13.1679 13.6081 12.887 14.3026 13.2348L18.0746 15.1242C18.7689 15.472 19.0499 16.3169 18.7021 17.0113L18.0723 18.2686Z" stroke="#ED1F24" stroke-miterlimit="10" stroke-linecap="round" stroke-linejoin="round"/>
<path d="M18.0725 18.2686C16.8129 20.7833 13.9811 23.2969 13.9811 23.2969L10.8377 21.7224L11.4675 20.4651L10.6858 20.725C9.978 20.9604 9.20569 20.9049 8.53875 20.5709L5.17969 18.8883C5.17969 18.8883 10.2113 18.263 11.7858 15.1197" stroke="#ED1F24" stroke-miterlimit="10" stroke-linecap="round" stroke-linejoin="round"/>
<path d="M22.9219 0.703129L16.1885 14.1796" stroke="#ED1F24" stroke-miterlimit="10" stroke-linecap="round" stroke-linejoin="round"/>
<path d="M8.8125 23.2969C8.8125 23.6852 8.49769 24 8.10938 24C7.72106 24 7.40625 23.6852 7.40625 23.2969C7.40625 22.9086 7.72106 22.5938 8.10938 22.5938C8.49769 22.5938 8.8125 22.9086 8.8125 23.2969Z" fill="#ED1F24"/>
<path d="M1.78125 19.0781C1.78125 19.4664 1.46644 19.7812 1.07812 19.7812C0.689812 19.7812 0.375 19.4664 0.375 19.0781C0.375 18.6898 0.689812 18.375 1.07812 18.375C1.46644 18.375 1.78125 18.6898 1.78125 19.0781Z" fill="#ED1F24"/>
<path d="M4.59375 20.4844C4.59375 20.8727 4.27894 21.1875 3.89062 21.1875C3.50231 21.1875 3.1875 20.8727 3.1875 20.4844C3.1875 20.0961 3.50231 19.7812 3.89062 19.7812C4.27894 19.7812 4.59375 20.0961 4.59375 20.4844Z" fill="#ED1F24"/>
<path d="M5.29688 23.2969H2.48438C1.70775 23.2969 1.07812 22.6673 1.07812 21.8906" stroke="#ED1F24" stroke-miterlimit="10" stroke-linecap="round" stroke-linejoin="round"/>
</g>
</g>
<defs>
<clipPath id="clip0_210_2882">
<rect width="24" height="24" fill="white"/>
</clipPath>
</defs>
</svg>
