<svg width="24" height="24" viewBox="0 0 24 24" fill="none" xmlns="http://www.w3.org/2000/svg">
<g clip-path="url(#clip0_270_1776)">
<path d="M23.625 12C23.625 15.1051 22.4158 18.0244 20.2201 20.2201C18.0244 22.4158 15.1051 23.625 12 23.625C8.89486 23.625 5.97558 22.4158 3.77991 20.2201C1.58419 18.0244 0.375 15.1051 0.375 12C0.375 9.40289 1.21266 6.94655 2.79736 4.89661C2.92402 4.73273 3.15952 4.70255 3.32339 4.82925C3.48727 4.95591 3.51736 5.19145 3.3907 5.35528C1.90847 7.2727 1.125 9.57042 1.125 12C1.125 17.9965 6.00352 22.875 12 22.875C17.9965 22.875 22.875 17.9965 22.875 12C22.875 6.00352 17.9965 1.125 12 1.125C10.0867 1.125 8.20514 1.629 6.5587 2.58253C6.17259 2.80617 5.80027 3.05461 5.44406 3.32409L6.53456 3.36323C6.74156 3.37069 6.90328 3.5445 6.89587 3.75145C6.88861 3.95381 6.72225 4.113 6.52139 4.113C6.51684 4.113 6.51225 4.11291 6.5077 4.11277L4.43363 4.03828C4.31841 4.03411 4.21153 3.9772 4.14375 3.88397C4.08656 3.80531 4.06308 3.70819 4.07592 3.61313C4.0762 3.61116 4.07625 3.60919 4.07658 3.60722C4.07752 3.60094 4.07897 3.59475 4.08023 3.58847C4.08173 3.58092 4.08333 3.57337 4.0853 3.56588C4.08577 3.56414 4.086 3.56236 4.08647 3.56058L4.65586 1.56492C4.71267 1.3658 4.92019 1.25044 5.11936 1.3072C5.31853 1.36406 5.43389 1.57158 5.37708 1.77075L5.1353 2.61816C5.47209 2.37145 5.82192 2.14252 6.18277 1.9335C7.94334 0.913922 9.95489 0.375 12 0.375C15.1051 0.375 18.0244 1.58423 20.2201 3.77991C22.4158 5.97558 23.625 8.89486 23.625 12ZM7.94606 11.518C7.94606 11.195 8.07183 10.8915 8.3002 10.6631C8.52853 10.4348 8.83214 10.309 9.15506 10.309C9.47803 10.309 9.78159 10.4348 10.01 10.6631L11.3857 12.0389L13.9904 9.39619C14.4608 8.92327 15.2264 8.92106 15.6982 9.39033C16.1699 9.85941 16.1721 10.625 15.7029 11.0968C15.0168 11.7897 14.5866 12.2302 14.1705 12.6562C13.6254 13.2141 13.1547 13.696 12.2438 14.6068C12.0082 14.8425 11.6985 14.9603 11.3889 14.9603C11.0793 14.9603 10.7698 14.8425 10.5341 14.6068L8.3002 12.3729C8.07183 12.1446 7.94606 11.8409 7.94606 11.518ZM8.69606 11.518C8.69606 11.6406 8.74378 11.7558 8.8305 11.8425L11.0644 14.0764C11.2433 14.2554 11.5345 14.2553 11.7135 14.0764C12.6213 13.1687 13.0905 12.6883 13.6339 12.1321C14.0315 11.7251 14.4821 11.2638 15.1705 10.5686C15.3487 10.3894 15.3479 10.0996 15.1693 9.92212C14.9907 9.74447 14.7009 9.74531 14.5234 9.92391L11.6547 12.8344C11.5845 12.9055 11.4889 12.9457 11.389 12.9461C11.3886 12.9461 11.3881 12.9461 11.3876 12.9461C11.2882 12.9461 11.1928 12.9066 11.1225 12.8363L9.47962 11.1935C9.39291 11.1068 9.27764 11.0591 9.15506 11.0591C9.03248 11.0591 8.91722 11.1068 8.83055 11.1935C8.74378 11.2802 8.69606 11.3954 8.69606 11.518ZM3.42188 12C3.42188 7.27003 7.26998 3.42188 12 3.42188C16.73 3.42188 20.5781 7.27003 20.5781 12C20.5781 16.73 16.73 20.5781 12 20.5781C7.26998 20.5781 3.42188 16.73 3.42188 12ZM4.17188 12C4.17188 16.3164 7.68356 19.8281 12 19.8281C16.3164 19.8281 19.8281 16.3164 19.8281 12C19.8281 7.68356 16.3164 4.17188 12 4.17188C7.68356 4.17188 4.17188 7.68356 4.17188 12ZM12 6.55177C12.2071 6.55177 12.375 6.38386 12.375 6.17677V5.46877C12.375 5.26167 12.2071 5.09377 12 5.09377C11.7929 5.09377 11.625 5.26167 11.625 5.46877V6.17677C11.625 6.38381 11.7929 6.55177 12 6.55177ZM16.1176 8.25731C16.2136 8.25731 16.3096 8.2207 16.3828 8.14748L16.8834 7.64686C17.0299 7.50037 17.0299 7.263 16.8834 7.11652C16.737 6.97013 16.4996 6.97013 16.3531 7.11652L15.8525 7.61714C15.7061 7.76362 15.7061 8.001 15.8525 8.14748C15.9257 8.2207 16.0217 8.25731 16.1176 8.25731ZM16.3828 15.8525C16.2364 15.7061 15.999 15.7061 15.8525 15.8525C15.7061 15.999 15.7061 16.2364 15.8525 16.3829L16.3531 16.8835C16.4264 16.9567 16.5223 16.9933 16.6183 16.9933C16.7143 16.9933 16.8103 16.9567 16.8835 16.8835C17.0299 16.737 17.0299 16.4996 16.8835 16.3531L16.3828 15.8525ZM7.38173 16.9933C7.47769 16.9933 7.57369 16.9567 7.64691 16.8834L8.14753 16.3828C8.29397 16.2363 8.29397 15.999 8.14753 15.8525C8.00109 15.7061 7.76367 15.7061 7.61723 15.8525L7.11661 16.3531C6.97017 16.4996 6.97017 16.737 7.11661 16.8834C7.18978 16.9567 7.28573 16.9933 7.38173 16.9933ZM7.61719 8.14748C7.69041 8.2207 7.78636 8.25731 7.88236 8.25731C7.97836 8.25731 8.07431 8.2207 8.14753 8.14748C8.29397 8.001 8.29397 7.76362 8.14753 7.61714L7.64691 7.11652C7.50047 6.97013 7.26305 6.97013 7.11661 7.11652C6.97017 7.263 6.97017 7.50037 7.11661 7.64686L7.61719 8.14748ZM17.8232 12.375H18.5312C18.7383 12.375 18.9062 12.2071 18.9062 12C18.9062 11.7929 18.7383 11.625 18.5312 11.625H17.8232C17.6161 11.625 17.4482 11.7929 17.4482 12C17.4482 12.2071 17.6161 12.375 17.8232 12.375ZM12 17.4482C11.7929 17.4482 11.625 17.6161 11.625 17.8232V18.5312C11.625 18.7383 11.7929 18.9062 12 18.9062C12.2071 18.9062 12.375 18.7383 12.375 18.5312V17.8232C12.375 17.6162 12.2071 17.4482 12 17.4482ZM6.17677 11.625H5.46877C5.26167 11.625 5.09377 11.7929 5.09377 12C5.09377 12.2071 5.26167 12.375 5.46877 12.375H6.17677C6.38386 12.375 6.55177 12.2071 6.55177 12C6.55177 11.7929 6.38386 11.625 6.17677 11.625Z" fill="#ED1F24"/>
</g>
<defs>
<clipPath id="clip0_270_1776">
<rect width="24" height="24" fill="white"/>
</clipPath>
</defs>
</svg>
